<svg width="10" height="6" viewBox="0 0 10 6" fill="none" xmlns="http://www.w3.org/2000/svg">
<path fill-rule="evenodd" clip-rule="evenodd" d="M0.234499 0.484499C0.269333 0.449576 0.310715 0.421869 0.356274 0.402964C0.401833 0.384059 0.450674 0.374329 0.499999 0.374329C0.549324 0.374329 0.598165 0.384059 0.643724 0.402964C0.689283 0.421869 0.730665 0.449576 0.765499 0.484499L5 4.71975L9.2345 0.484499C9.26936 0.449633 9.31076 0.421976 9.35631 0.403106C9.40187 0.384237 9.45069 0.374525 9.5 0.374525C9.54931 0.374525 9.59813 0.384237 9.64369 0.403106C9.68924 0.421976 9.73063 0.449633 9.7655 0.484499C9.80036 0.519365 9.82802 0.560757 9.84689 0.606311C9.86576 0.651866 9.87547 0.700691 9.87547 0.749999C9.87547 0.799307 9.86576 0.848132 9.84689 0.893687C9.82802 0.939241 9.80036 0.980633 9.7655 1.0155L5.2655 5.5155C5.23066 5.55042 5.18928 5.57813 5.14372 5.59703C5.09817 5.61594 5.04932 5.62567 5 5.62567C4.95067 5.62567 4.90183 5.61594 4.85627 5.59703C4.81072 5.57813 4.76933 5.55042 4.7345 5.5155L0.234499 1.0155C0.199577 0.980665 0.171869 0.939283 0.152965 0.893724C0.13406 0.848165 0.124329 0.799324 0.124329 0.749999C0.124329 0.700673 0.13406 0.651832 0.152965 0.606274C0.171869 0.560715 0.199577 0.519333 0.234499 0.484499Z" fill="#FBFBFB"/>
</svg>
